<?xml version="1.0" encoding="UTF-8" standalone="no"?>
<!-- Created with Inkscape (http://www.inkscape.org/) -->

<svg
   xmlns:dc="http://purl.org/dc/elements/1.1/"
   xmlns:cc="http://creativecommons.org/ns#"
   xmlns:rdf="http://www.w3.org/1999/02/22-rdf-syntax-ns#"
   xmlns:svg="http://www.w3.org/2000/svg"
   xmlns="http://www.w3.org/2000/svg"
   xmlns:xlink="http://www.w3.org/1999/xlink"
   xmlns:sodipodi="http://sodipodi.sourceforge.net/DTD/sodipodi-0.dtd"
   xmlns:inkscape="http://www.inkscape.org/namespaces/inkscape"
   width="500"
   height="250"
   viewBox="0 0 500 249.99989"
   id="svg7955"
   version="1.1"
   inkscape:version="0.91 r13725"
   inkscape:export-filename="/home/kinow/Pictures/final-logo/png/opennlp-poweredby.png"
   inkscape:export-xdpi="90"
   inkscape:export-ydpi="90"
   sodipodi:docname="opennlp-poweredby.png">
  <title
     id="title4235">OpenNLP Logo</title>
  <defs
     id="defs7957">
    <inkscape:path-effect
       effect="spiro"
       id="path-effect4317"
       is_visible="true" />
    <inkscape:path-effect
       effect="spiro"
       id="path-effect4744"
       is_visible="true" />
    <inkscape:path-effect
       effect="spiro"
       id="path-effect4739"
       is_visible="true" />
    <linearGradient
       x1="-9585.2998"
       y1="620.5"
       gradientTransform="matrix(-0.21591,0.044142,-0.044142,-0.21591,-974.83,437.49)"
       x2="-5326.2002"
       gradientUnits="userSpaceOnUse"
       y2="620.5"
       id="book-gradient-5">
      <stop
         id="stop4461"
         offset="0.26228851"
         style="stop-color:#5d2057;stop-opacity:1" />
      <stop
         id="stop4463"
         offset="0.44216484"
         style="stop-color:#d02f3a;stop-opacity:0.99607843" />
      <stop
         id="stop4465"
         offset="0.70887512"
         style="stop-color:#f7750a;stop-opacity:1" />
      <stop
         id="stop4467"
         offset="1"
         style="stop-color:#f58810;stop-opacity:0.98823529" />
    </linearGradient>
    <linearGradient
       id="e"
       y2="638.44"
       gradientUnits="userSpaceOnUse"
       x2="-6797.2002"
       gradientTransform="matrix(-0.21591,0.044142,-0.044142,-0.21591,-974.83,437.49)"
       y1="638.44"
       x1="-9035.5">
      <stop
         style="stop-color:#282662"
         offset="0"
         id="stop4223" />
      <stop
         style="stop-color:#662E8D"
         offset=".095484"
         id="stop4225" />
      <stop
         style="stop-color:#9F2064"
         offset=".7882"
         id="stop4227" />
      <stop
         style="stop-color:#CD2032"
         offset=".9487"
         id="stop4229" />
    </linearGradient>
    <linearGradient
       id="i"
       y2="1395.6"
       gradientUnits="userSpaceOnUse"
       x2="-4570.1001"
       gradientTransform="matrix(-0.21591,0.044142,-0.044142,-0.21591,-974.83,437.49)"
       y1="697.54999"
       x1="-5167.1001">
      <stop
         style="stop-color:#F69923"
         offset="0"
         id="stop4189" />
      <stop
         style="stop-color:#F79A23"
         offset=".3123"
         id="stop4191" />
      <stop
         style="stop-color:#E97826"
         offset=".8383"
         id="stop4193" />
    </linearGradient>
    <linearGradient
       id="h"
       y2="620.5"
       gradientUnits="userSpaceOnUse"
       x2="-5326.2002"
       gradientTransform="matrix(-0.21591,0.044142,-0.044142,-0.21591,-974.83,437.49)"
       y1="620.5"
       x1="-9585.2998">
      <stop
         style="stop-color:#9E2064"
         offset=".3233"
         id="stop4196" />
      <stop
         style="stop-color:#C92037"
         offset=".6302"
         id="stop4198" />
      <stop
         style="stop-color:#CD2335"
         offset=".7514"
         id="stop4200" />
      <stop
         style="stop-color:#E97826"
         offset="1"
         id="stop4202" />
    </linearGradient>
    <linearGradient
       id="f"
       y2="580.82001"
       gradientUnits="userSpaceOnUse"
       x2="-5087"
       gradientTransform="matrix(-0.21591,0.044142,-0.044142,-0.21591,-974.83,437.49)"
       y1="580.82001"
       x1="-9346.0996">
      <stop
         style="stop-color:#9E2064"
         offset=".3233"
         id="stop4214" />
      <stop
         style="stop-color:#C92037"
         offset=".6302"
         id="stop4216" />
      <stop
         style="stop-color:#CD2335"
         offset=".7514"
         id="stop4218" />
      <stop
         style="stop-color:#E97826"
         offset="1"
         id="stop4220" />
    </linearGradient>
    <linearGradient
       id="d"
       y2="1021.6"
       gradientUnits="userSpaceOnUse"
       x2="-5087"
       gradientTransform="matrix(-0.21591,0.044142,-0.044142,-0.21591,-974.83,437.49)"
       y1="1021.6"
       x1="-9346.0996">
      <stop
         style="stop-color:#9E2064"
         offset=".3233"
         id="stop4232" />
      <stop
         style="stop-color:#C92037"
         offset=".6302"
         id="stop4234" />
      <stop
         style="stop-color:#CD2335"
         offset=".7514"
         id="stop4236" />
      <stop
         style="stop-color:#E97826"
         offset="1"
         id="stop4238" />
    </linearGradient>
    <linearGradient
       id="c"
       y2="999.72998"
       gradientUnits="userSpaceOnUse"
       x2="-5351.2002"
       gradientTransform="matrix(-0.21591,0.044142,-0.044142,-0.21591,-974.83,437.49)"
       y1="999.72998"
       x1="-9610.2998">
      <stop
         style="stop-color:#9E2064"
         offset=".3233"
         id="stop4241" />
      <stop
         style="stop-color:#C92037"
         offset=".6302"
         id="stop4243" />
      <stop
         style="stop-color:#CD2335"
         offset=".7514"
         id="stop4245" />
      <stop
         style="stop-color:#E97826"
         offset="1"
         id="stop4247" />
    </linearGradient>
    <linearGradient
       id="b"
       y2="1152.7"
       gradientUnits="userSpaceOnUse"
       x2="-5087"
       gradientTransform="matrix(-0.21591,0.044142,-0.044142,-0.21591,-974.83,437.49)"
       y1="1152.7"
       x1="-9346.0996">
      <stop
         style="stop-color:#9E2064"
         offset=".3233"
         id="stop4250" />
      <stop
         style="stop-color:#C92037"
         offset=".6302"
         id="stop4252" />
      <stop
         style="stop-color:#CD2335"
         offset=".7514"
         id="stop4254" />
      <stop
         style="stop-color:#E97826"
         offset="1"
         id="stop4256" />
    </linearGradient>
    <linearGradient
       id="a"
       y2="1137.7"
       gradientUnits="userSpaceOnUse"
       x2="-5087"
       gradientTransform="matrix(-0.21591,0.044142,-0.044142,-0.21591,-974.83,437.49)"
       y1="1137.7"
       x1="-9346.0996">
      <stop
         style="stop-color:#9E2064"
         offset=".3233"
         id="stop4259" />
      <stop
         style="stop-color:#C92037"
         offset=".6302"
         id="stop4261" />
      <stop
         style="stop-color:#CD2335"
         offset=".7514"
         id="stop4263" />
      <stop
         style="stop-color:#E97826"
         offset="1"
         id="stop4265" />
    </linearGradient>
    <linearGradient
       id="j"
       y2="1134.7"
       gradientUnits="userSpaceOnUse"
       x2="-6012"
       gradientTransform="matrix(-0.21591,0.044142,-0.044142,-0.21591,-974.83,437.49)"
       y1="1134.7"
       x1="-6953.3999">
      <stop
         style="stop-color:#9E2064"
         offset=".3233"
         id="stop4268" />
      <stop
         style="stop-color:#C92037"
         offset=".6302"
         id="stop4270" />
      <stop
         style="stop-color:#CD2335"
         offset=".7514"
         id="stop4272" />
      <stop
         style="stop-color:#E97826"
         offset="1"
         id="stop4274" />
    </linearGradient>
    <linearGradient
       id="g"
       y2="1047.7"
       gradientUnits="userSpaceOnUse"
       x2="-6533.2002"
       gradientTransform="matrix(-0.21591,0.044142,-0.044142,-0.21591,-974.83,437.49)"
       y1="1047.7"
       x1="-9071.2002">
      <stop
         style="stop-color:#282662"
         offset="0"
         id="stop4205" />
      <stop
         style="stop-color:#662E8D"
         offset=".095484"
         id="stop4207" />
      <stop
         style="stop-color:#9F2064"
         offset=".7882"
         id="stop4209" />
      <stop
         style="stop-color:#CD2032"
         offset=".9487"
         id="stop4211" />
    </linearGradient>
    <linearGradient
       inkscape:collect="always"
       xlink:href="#e"
       id="linearGradient4453"
       gradientUnits="userSpaceOnUse"
       gradientTransform="matrix(-0.01277011,-0.02036973,-0.02036973,0.01277011,15.339593,750.94027)"
       x1="-9035.5"
       y1="638.44"
       x2="-6797.2002"
       y2="638.44" />
    <linearGradient
       inkscape:collect="always"
       xlink:href="#i"
       id="linearGradient4455"
       gradientUnits="userSpaceOnUse"
       gradientTransform="matrix(-0.01277011,-0.02036973,-0.02036973,0.01277011,15.339593,750.94027)"
       x1="-5167.1001"
       y1="697.54999"
       x2="-4570.1001"
       y2="1395.6" />
    <linearGradient
       inkscape:collect="always"
       xlink:href="#h"
       id="linearGradient4457"
       gradientUnits="userSpaceOnUse"
       gradientTransform="matrix(-0.01277011,-0.02036973,-0.02036973,0.01277011,15.339593,750.94027)"
       x1="-9585.2998"
       y1="620.5"
       x2="-5326.2002"
       y2="620.5" />
    <linearGradient
       inkscape:collect="always"
       xlink:href="#f"
       id="linearGradient4459"
       gradientUnits="userSpaceOnUse"
       gradientTransform="matrix(-0.01277011,-0.02036973,-0.02036973,0.01277011,15.339593,750.94027)"
       x1="-9346.0996"
       y1="580.82001"
       x2="-5087"
       y2="580.82001" />
    <linearGradient
       inkscape:collect="always"
       xlink:href="#d"
       id="linearGradient4461"
       gradientUnits="userSpaceOnUse"
       gradientTransform="matrix(-0.01277011,-0.02036973,-0.02036973,0.01277011,15.339593,750.94027)"
       x1="-9346.0996"
       y1="1021.6"
       x2="-5087"
       y2="1021.6" />
    <linearGradient
       inkscape:collect="always"
       xlink:href="#c"
       id="linearGradient4463"
       gradientUnits="userSpaceOnUse"
       gradientTransform="matrix(-0.01277011,-0.02036973,-0.02036973,0.01277011,15.339593,750.94027)"
       x1="-9610.2998"
       y1="999.72998"
       x2="-5351.2002"
       y2="999.72998" />
    <linearGradient
       inkscape:collect="always"
       xlink:href="#b"
       id="linearGradient4465"
       gradientUnits="userSpaceOnUse"
       gradientTransform="matrix(-0.01277011,-0.02036973,-0.02036973,0.01277011,15.339593,750.94027)"
       x1="-9346.0996"
       y1="1152.7"
       x2="-5087"
       y2="1152.7" />
    <linearGradient
       inkscape:collect="always"
       xlink:href="#a"
       id="linearGradient4467"
       gradientUnits="userSpaceOnUse"
       gradientTransform="matrix(-0.01277011,-0.02036973,-0.02036973,0.01277011,15.339593,750.94027)"
       x1="-9346.0996"
       y1="1137.7"
       x2="-5087"
       y2="1137.7" />
    <linearGradient
       inkscape:collect="always"
       xlink:href="#j"
       id="linearGradient4469"
       gradientUnits="userSpaceOnUse"
       gradientTransform="matrix(-0.01277011,-0.02036973,-0.02036973,0.01277011,15.339593,750.94027)"
       x1="-6953.3999"
       y1="1134.7"
       x2="-6012"
       y2="1134.7" />
    <linearGradient
       inkscape:collect="always"
       xlink:href="#g"
       id="linearGradient4471"
       gradientUnits="userSpaceOnUse"
       gradientTransform="matrix(-0.01277011,-0.02036973,-0.02036973,0.01277011,15.339593,750.94027)"
       x1="-9071.2002"
       y1="1047.7"
       x2="-6533.2002"
       y2="1047.7" />
  </defs>
  <sodipodi:namedview
     id="base"
     pagecolor="#ffffff"
     bordercolor="#666666"
     borderopacity="1.0"
     inkscape:pageopacity="0.0"
     inkscape:pageshadow="2"
     inkscape:zoom="0.7"
     inkscape:cx="515.77177"
     inkscape:cy="26.657324"
     inkscape:document-units="px"
     inkscape:current-layer="layer2"
     showgrid="false"
     height="73mm"
     inkscape:window-width="1600"
     inkscape:window-height="846"
     inkscape:window-x="0"
     inkscape:window-y="25"
     inkscape:window-maximized="1"
     showguides="true"
     inkscape:guide-bbox="true"
     units="px" />
  <metadata
     id="metadata7960">
    <rdf:RDF>
      <cc:Work
         rdf:about="">
        <dc:format>image/svg+xml</dc:format>
        <dc:type
           rdf:resource="http://purl.org/dc/dcmitype/StillImage" />
        <dc:title>OpenNLP Logo</dc:title>
        <dc:date>2017-04-12</dc:date>
        <dc:creator>
          <cc:Agent>
            <dc:title>Bruno P. Kinoshita</dc:title>
          </cc:Agent>
        </dc:creator>
        <dc:rights>
          <cc:Agent>
            <dc:title>Apache License 2.0 or CC BY 4.0</dc:title>
          </cc:Agent>
        </dc:rights>
        <dc:publisher>
          <cc:Agent>
            <dc:title>Apache Software Foundation</dc:title>
          </cc:Agent>
        </dc:publisher>
        <dc:identifier />
        <dc:language>English</dc:language>
        <dc:subject>
          <rdf:Bag>
            <rdf:li>nlp</rdf:li>
            <rdf:li>natural language processing</rdf:li>
            <rdf:li>opennlp</rdf:li>
            <rdf:li>apache software foundation</rdf:li>
            <rdf:li>asf</rdf:li>
          </rdf:Bag>
        </dc:subject>
        <dc:description>New logo for Apache OpenNLP project</dc:description>
        <dc:contributor>
          <cc:Agent>
            <dc:title>Bruno P. Kinoshita, Koji Sekiguchi, Joern Kottmann, Suneel Marthi, William Colen</dc:title>
          </cc:Agent>
        </dc:contributor>
        <cc:license
           rdf:resource="http://creativecommons.org/licenses/by/3.0/" />
      </cc:Work>
      <cc:License
         rdf:about="http://creativecommons.org/licenses/by/3.0/">
        <cc:permits
           rdf:resource="http://creativecommons.org/ns#Reproduction" />
        <cc:permits
           rdf:resource="http://creativecommons.org/ns#Distribution" />
        <cc:requires
           rdf:resource="http://creativecommons.org/ns#Notice" />
        <cc:requires
           rdf:resource="http://creativecommons.org/ns#Attribution" />
        <cc:permits
           rdf:resource="http://creativecommons.org/ns#DerivativeWorks" />
      </cc:License>
    </rdf:RDF>
  </metadata>
  <g
     inkscape:label="Layer 1"
     inkscape:groupmode="layer"
     id="layer1"
     transform="translate(0,-802.36229)"
     style="display:inline">
    <g
       transform="matrix(2.1489119,0,0,2.1489119,-573.69313,-760.04079)"
       id="g4439"
       style="font-style:normal;font-weight:normal;font-size:40px;line-height:125%;font-family:sans-serif;letter-spacing:0px;word-spacing:0px;display:inline;fill:#000000;fill-opacity:1;stroke:none;stroke-width:1px;stroke-linecap:butt;stroke-linejoin:miter;stroke-opacity:1" />
    <path
       inkscape:connector-curvature="0"
       style="opacity:1;fill:#be2043;fill-opacity:1;fill-rule:nonzero;stroke:none;stroke-width:0.1;stroke-linecap:butt;stroke-linejoin:miter;stroke-miterlimit:4;stroke-dasharray:none;stroke-opacity:1"
       d="m 109.85495,910.87989 c -3.35792,-1.46605 -6.92712,-2.21591 -10.333402,-2.75861 6.263322,3.32475 12.881862,7.2914 16.430022,13.31479 1.98323,3.36676 3.27757,8.02861 2.65414,12.18983 l -0.03,0.0466 c 0.01,-0.007 0.0201,-0.0122 0.0291,-0.0182 -0.001,0.01 -0.002,0.0197 -0.004,0.0294 l 0.03,-0.0466 c 3.82355,-2.72769 9.20779,-4.39779 13.67303,-4.87591 7.9886,-0.8554 15.6085,1.5562 22.39162,4.07573 -6.45773,-5.51462 -15.01757,-11.02302 -31.49782,-6.26297 l -2.68356,4.12281 2.64918,-4.13821 c -2.69998,-8.79856 -7.71149,-13.23522 -13.30806,-15.67859 z"
       id="path4377" />
    <path
       style="opacity:1;fill:#f59523;fill-opacity:1;fill-rule:nonzero;stroke:none;stroke-width:0.1;stroke-linecap:butt;stroke-linejoin:miter;stroke-miterlimit:4;stroke-dasharray:none;stroke-opacity:1"
       d="m 102.44652,974.71142 c 13.72793,1.86321 25.30225,4.65988 38.10661,25.85518 l 25.63669,-50.31008 -0.16033,5.93575 -25.8849,59.19683 c -7.19831,-23.92263 -21.10547,-36.56344 -37.69807,-40.67768 z"
       id="path4379"
       inkscape:connector-curvature="0"
       sodipodi:nodetypes="cccccc" />
    <path
       style="opacity:1;fill:#e56b28;fill-opacity:1;fill-rule:nonzero;stroke:none;stroke-width:0.1;stroke-linecap:butt;stroke-linejoin:miter;stroke-miterlimit:4;stroke-dasharray:none;stroke-opacity:1"
       d="m 164.48211,939.54605 0.59006,5.96939 -24.74359,48.58331 c -11.76763,-21.40408 -32.41274,-22.82644 -43.018462,-22.25661 10.116382,-2.53979 31.906162,-5.46059 44.910652,7.83466 z"
       id="path4381"
       inkscape:connector-curvature="0"
       sodipodi:nodetypes="cccccc" />
    <path
       sodipodi:nodetypes="cccccc"
       inkscape:connector-curvature="0"
       id="path4323"
       d="m 85.817158,968.6225 c -9.20103,-8.7233 -18.19857,-15.42484 -46.46329,-13.19147 l 37.22952,-44.95762 -5.91901,3.27691 -46.086825,49.86945 c 28.035875,-7.65471 48.234765,-4.54844 61.239605,5.00273 z"
       style="opacity:1;fill:#832778;fill-opacity:1;fill-rule:nonzero;stroke:none;stroke-width:0.1;stroke-linecap:butt;stroke-linejoin:miter;stroke-miterlimit:4;stroke-dasharray:none;stroke-opacity:1" />
    <path
       sodipodi:nodetypes="cccccc"
       inkscape:connector-curvature="0"
       id="path4325"
       d="m 88.327958,905.97398 -6.35299,2.76374 -35.95864,43.40518 c 27.92333,-3.07837 40.3649,10.77568 45.44075,18.58582 -2.82229,-8.51368 -11.48046,-25.49257 -31.86033,-27.61116 z"
       style="opacity:1;fill:#be2043;fill-opacity:1;fill-rule:nonzero;stroke:none;stroke-width:0.1;stroke-linecap:butt;stroke-linejoin:miter;stroke-miterlimit:4;stroke-dasharray:none;stroke-opacity:1" />
    <path
       id="path4385"
       d="m 103.07276,913.22393 c 0.76839,2.32239 1.39956,4.65205 1.86196,6.98826 0.0152,0.0829 0.0348,0.16284 0.05,0.24575 0.942,-2.03104 3.8627,-4.26198 3.85762,-4.2444 -1.84834,3.54885 -3.15575,7.00625 -3.0152,10.2231 1.23809,0.0981 2.84701,-0.46532 4.67059,-1.40666 -1.76472,2.07755 -3.19783,2.76932 -3.76302,2.97762 1.84418,-0.11294 3.9068,0.90751 6.00736,2.11694 -2.95045,-0.7962 -5.27577,-0.9675 -6.85485,-0.39814 3.48359,6.97572 7.0684,14.70903 10.71563,22.93937 -0.82116,-0.13537 -1.35968,-0.60869 -1.71405,-1.29628 -0.65297,-1.49123 -4.97218,-11.27062 -11.41986,-24.0285 -0.18315,-0.36244 -0.36898,-0.72697 -0.55509,-1.09389 -0.0515,-0.10261 -0.1054,-0.20494 -0.15665,-0.30517 -0.67984,-1.3376 -1.38238,-2.70151 -2.10514,-4.09196 -0.16529,-0.31621 -0.33057,-0.63242 -0.49617,-0.95102 -0.004,-0.007 -0.006,-0.0137 -0.01,-0.0182 l 2.84407,-7.91483 c 0.0271,0.0815 0.0553,0.17242 0.083,0.25863 z"
       style="fill:url(#linearGradient4453)"
       inkscape:connector-curvature="0" />
    <path
       id="path4387"
       d="m 61.209018,857.63895 c 2.00394,0.96391 3.69919,2.44317 5.38721,3.86723 0.98114,0.85131 1.93829,1.73004 2.87926,2.62538 -0.73536,1.93267 -1.47066,3.86525 -2.20594,5.79799 -2.30325,-2.55074 -4.73572,-4.99408 -7.38606,-7.18595 2.57459,2.20939 4.82411,4.76658 7.02482,7.33988 -3.78973,0.24167 -7.59196,0.16831 -11.38318,0.0122 -0.83595,-2.74818 -1.24682,-5.78912 -0.28962,-8.56252 0.67412,-1.59253 1.74049,-3.15973 3.34627,-3.91768 0.83074,-0.37671 1.80042,-0.35036 2.62682,0.0235 z"
       style="fill:url(#linearGradient4455)"
       inkscape:connector-curvature="0" />
    <path
       id="path4389"
       d="m 69.945218,888.06329 c -0.0221,-0.002 -0.0439,-0.001 -0.0659,-0.004 l 0.42077,-0.006 c 0.0277,0.009 0.0507,0.0179 0.078,0.0242 -0.14581,-0.004 -0.28955,-0.01 -0.43298,-0.014 z"
       style="fill:none"
       inkscape:connector-curvature="0" />
    <path
       id="path4391"
       d="m 74.097828,897.44123 c 0.24272,0.0231 0.48873,0.0338 0.73654,0.0393 -0.2478,-0.006 -0.49412,-0.0185 -0.73654,-0.0393 z"
       style="fill:none"
       inkscape:connector-curvature="0" />
    <path
       id="path4393"
       d="m 96.808068,916.81307 c -0.0411,-0.0772 -0.0822,-0.15452 -0.12097,-0.23208 -0.84281,-1.596 -1.67249,-3.14513 -2.4925,-4.65434 -0.92025,-1.69294 -1.82389,-3.32984 -2.71386,-4.91508 -0.93702,-1.67154 -1.85702,-3.28452 -2.76036,-4.8415 -0.94687,-1.63395 -1.87615,-3.20462 -2.7835,-4.71511 -0.73902,-1.22856 -1.46342,-2.41771 -2.17558,-3.56713 -0.23651,-0.38247 -0.47272,-0.76255 -0.70834,-1.13784 -0.46558,-0.74405 -0.927,-1.47411 -1.37884,-2.18589 -0.41853,-0.65783 -0.8326,-1.29928 -1.24281,-1.9291 -0.13524,-0.21091 -0.27227,-0.41677 -0.40721,-0.62531 -0.0211,-0.0337 -0.0446,-0.0671 -0.0658,-0.10079 l 0.35785,-0.006 0.21274,-0.58852 c 0.0331,0.0517 0.0682,0.10054 0.1037,0.15187 0.63068,0.9416 1.25773,1.89331 1.88115,2.8551 0.35984,0.55611 0.72001,1.11464 1.07802,1.67576 0.99287,1.55556 1.97554,3.12689 2.94539,4.71194 0.98145,1.60052 1.94745,3.21275 2.8994,4.82906 0.93619,1.58684 1.85591,3.17808 2.76315,4.76601 0.9045,1.58586 1.79182,3.16911 2.66325,4.7422 0.90927,1.64342 1.79744,3.2726 2.66163,4.88529 0.19537,0.36335 0.39074,0.72669 0.58375,1.09038 0.69486,1.30189 1.37296,2.58643 2.037002,3.85575 l -0.334932,0.93077 -0.40139,0.006 c -0.0193,-0.0388 -0.0387,-0.0776 -0.0577,-0.11391 -0.85972,-1.6738 -1.70671,-3.3032 -2.54336,-4.88789 z"
       style="fill:none"
       inkscape:connector-curvature="0" />
    <path
       id="path4395"
       d="m 75.021398,897.48609 c -0.002,3.9e-4 -0.002,-0.002 -0.005,-10e-4 0,0 0.002,-3.8e-4 0.005,10e-4 z"
       style="fill:none"
       inkscape:connector-curvature="0" />
    <path
       id="path4397"
       d="m 76.566658,902.1177 c 0.37573,0.0212 0.76308,0.0384 1.16027,0.0569 0.002,-3.8e-4 0.005,10e-4 0.007,10e-4 -0.1992,-0.005 -0.39601,-0.009 -0.59104,-0.0186 -0.19501,-0.01 -0.38557,-0.0224 -0.5767,-0.0398 z"
       style="fill:#be202e"
       inkscape:connector-curvature="0" />
    <path
       id="path4399"
       d="m 76.566658,902.1177 c 0.37573,0.0212 0.76308,0.0384 1.16027,0.0569 0.002,-3.8e-4 0.005,10e-4 0.007,10e-4 -0.1992,-0.005 -0.39601,-0.009 -0.59104,-0.0186 -0.19501,-0.01 -0.38557,-0.0224 -0.5767,-0.0398 z"
       style="opacity:0.35;fill:#be202e"
       inkscape:connector-curvature="0" />
    <path
       id="path4401"
       d="m 75.011148,897.4823 c 0,0 0.002,-3.8e-4 0.002,0.002 0.002,-3.8e-4 0.002,0.002 0.005,0.001 -0.063,5.6e-4 -0.12406,-0.004 -0.1846,-0.004 -0.2502,-0.005 -0.4965,-0.0182 -0.73655,-0.0393 0.2994,0.0109 0.60416,0.0266 0.91339,0.0391 z"
       style="fill:#be202e"
       inkscape:connector-curvature="0" />
    <path
       id="path4403"
       d="m 75.011148,897.4823 c 0,0 0.002,-3.8e-4 0.002,0.002 0.002,-3.8e-4 0.002,0.002 0.005,0.001 -0.063,5.6e-4 -0.12406,-0.004 -0.1846,-0.004 -0.2502,-0.005 -0.4965,-0.0182 -0.73655,-0.0393 0.2994,0.0109 0.60416,0.0266 0.91339,0.0391 z"
       style="opacity:0.35;fill:#be202e"
       inkscape:connector-curvature="0" />
    <path
       id="path4405"
       d="m 77.512708,882.92881 c -1.07902,-1.52782 -2.16557,-3.01847 -3.25628,-4.46491 -1.13157,-1.50199 -2.2691,-2.95474 -3.40908,-4.34906 -0.0659,-0.0814 -0.13438,-0.165 -0.20051,-0.24884 -1.12507,-1.37193 -2.25258,-2.68543 -3.37953,-3.93601 l 2.20594,-5.79798 c 0.25004,0.23784 0.50066,0.48045 0.75664,0.72725 0.959,0.93227 1.96118,1.93915 2.99309,3.01008 1.16278,1.20737 2.36543,2.50182 3.59338,3.86337 1.1329,1.25953 2.28816,2.58171 3.44959,3.95393 0.98831,1.16843 1.98616,2.37449 2.98106,3.61487 0.0372,0.0462 0.0743,0.0902 0.11148,0.13645 -0.74753,2.72074 -1.88651,5.24947 -2.82975,7.8742 -0.99888,-1.48697 -2.00428,-2.94888 -3.01601,-4.38336 z"
       style="fill:url(#linearGradient4457)"
       inkscape:connector-curvature="0" />
    <path
       id="path4407"
       d="m 97.524438,915.92946 c -0.86667,-1.61244 -1.75476,-3.24153 -2.66163,-4.8853 -0.86908,-1.57335 -1.75846,-3.15389 -2.66325,-4.74219 -0.90482,-1.58827 -1.82668,-3.17688 -2.76315,-4.76602 -0.95193,-1.61632 -1.92031,-3.22825 -2.8994,-4.82906 -0.96954,-1.58263 -1.95252,-3.15636 -2.94539,-4.71193 -0.35804,-0.56118 -0.7182,-1.11968 -1.07802,-1.67575 -0.62351,-0.96188 -1.25055,-1.91358 -1.88115,-2.85512 -0.0331,-0.0517 -0.0682,-0.10054 -0.1037,-0.15185 l 2.83014,-7.87381 c 0.0745,0.0925 0.1466,0.18529 0.22108,0.2778 1.05053,1.31817 2.10285,2.67006 3.14238,4.05511 1.05079,1.39812 2.08848,2.82699 3.10973,4.27967 0.86213,1.22529 1.70913,2.46471 2.53841,3.71829 0.16742,0.25539 0.33185,0.50629 0.49659,0.75958 1.02743,1.58035 1.96657,3.11343 2.82883,4.5932 0.97632,1.67626 1.85227,3.28513 2.63365,4.8161 0.5152,1.00682 0.99019,1.98231 1.43148,2.92078 0.366232,0.80242 0.720852,1.60873 1.060562,2.41205 0.80472,1.89386 1.53014,3.79279 2.16876,5.69521 -0.90899,2.62146 -1.81727,5.30088 -2.84407,7.91483 -0.664152,-1.26936 -1.342842,-2.55863 -2.037672,-3.86055 -0.19269,-0.36127 -0.38835,-0.727 -0.58374,-1.09038 z"
       style="fill:url(#linearGradient4459)"
       inkscape:connector-curvature="0" />
    <path
       id="path4409"
       d="m 80.024498,888.01202 c 0.13465,0.20615 0.26959,0.41469 0.40722,0.62532 0.40781,0.63008 0.82187,1.27151 1.2428,1.9291 0.45427,0.71154 0.91303,1.4395 1.37885,2.18587 0.23562,0.3753 0.46915,0.7533 0.70833,1.13784 0.71223,1.14951 1.43663,2.33865 2.1756,3.56713 0.90726,1.51043 1.8366,3.08118 2.78349,4.71511 0.90336,1.55697 1.82343,3.17004 2.76037,4.8415 0.88993,1.58529 1.79387,3.22458 2.71386,4.91508 0.81988,1.50917 1.64965,3.05838 2.49248,4.65434 0.0411,0.0773 0.0822,0.15453 0.12097,0.2321 0.83654,1.58463 1.68352,3.21404 2.54063,4.88581 0.0193,0.0388 0.0387,0.0776 0.0577,0.11391 l -3.07362,0.0452 c 0.0581,-0.0193 0.11926,-0.0342 0.17747,-0.0536 -3.68251,-1.4e-4 -8.83882,-2.11146 -12.37044,-5.06897 -1.62787,-1.36278 -3.1565,-3.01886 -4.62584,-4.99724 -1.09398,-1.47272 -2.15447,-3.12404 -3.19778,-4.96887 -0.91261,-1.61159 -1.81403,-3.36742 -2.71094,-5.28131 0.88723,0.3355 1.88159,0.53895 2.96168,0.6325 0.18846,0.0153 0.38168,0.03 0.5767,0.0398 0.19502,0.01 0.39213,0.0167 0.59103,0.0186 -0.002,3.8e-4 -0.005,-10e-4 -0.007,-10e-4 -3.54239,-0.8801 -5.9876,-3.12723 -7.92063,-6.00989 0.96524,0.4954 2.50987,1.11022 4.28939,1.27664 0.24273,0.0231 0.48873,0.0337 0.73654,0.0393 0.0632,0.002 0.12405,0.004 0.1846,0.004 -0.002,3.9e-4 -0.002,-0.002 -0.005,-10e-4 0,0 -0.002,3.9e-4 -0.002,-0.002 -1.23497,-0.34562 -2.29324,-0.77125 -3.23285,-1.31349 -0.20091,-0.1155 -0.39764,-0.23646 -0.58811,-0.36543 -0.29061,-0.19403 -0.5684,-0.40177 -0.83813,-0.62263 -0.17256,-0.14088 -0.34094,-0.28712 -0.50545,-0.44111 -0.38622,-0.35901 -0.75483,-0.7517 -1.10911,-1.18497 -0.10845,-0.13188 -0.21483,-0.26645 -0.32179,-0.40578 -0.13912,-0.20317 -0.27287,-0.40218 -0.40395,-0.59909 -0.59042,-0.89086 -1.07266,-1.69097 -1.46579,-2.39798 -0.19657,-0.35352 -0.37049,-0.68075 -0.52237,-0.98653 -0.061,-0.12084 -0.11938,-0.23955 -0.1748,-0.3538 -0.16377,-0.34305 -0.30103,-0.64821 -0.41208,-0.91787 -0.16641,-0.40331 -0.27682,-0.72632 -0.34495,-0.96256 0.12578,0.0765 0.26829,0.15078 0.42717,0.22067 1.09709,0.48389 2.9171,0.81972 4.36182,0.90428 l -2.82226,0.0407 2.82226,-0.0407 c 0.022,0.002 0.0439,10e-4 0.0659,0.004 0.14373,0.006 0.28955,0.01 0.43566,0.0162 -0.0277,-0.009 -0.0467,-0.0216 -0.0742,-0.028 l 9.65272,-0.13532 c 0.0209,0.0314 0.0417,0.0626 0.0653,0.096 z"
       style="fill:url(#linearGradient4461)"
       inkscape:connector-curvature="0" />
    <path
       id="path4411"
       d="m 66.906188,870.08625 c 1.00862,1.19503 2.1179,2.55683 3.32066,4.10564 0.0632,0.0794 0.12694,0.16352 0.19039,0.24526 1.03892,1.34147 2.15017,2.81685 3.32579,4.43933 1.01714,1.39993 2.08123,2.90536 3.19396,4.52842 0.97026,1.41296 1.98102,2.91785 3.02218,4.51103 l -9.57663,0.16436 c -2.93343,-0.93152 -4.39919,-1.9585 -5.81166,-3.47875 -0.37693,-0.42074 -0.75889,-0.86262 -1.14059,-1.32154 -1.16796,-1.40533 -2.33621,-2.96822 -3.40299,-4.53395 -1.0287,-1.51236 -1.95774,-3.0225 -2.69784,-4.39627 -0.46966,-0.87437 -0.86212,-1.69291 -1.15325,-2.41744 -0.25631,-0.63923 -0.47029,-1.24982 -0.6497,-1.83561 3.78856,0.17111 8.4066,0.21254 11.3808,-0.01 z"
       style="fill:url(#linearGradient4463)"
       inkscape:connector-curvature="0" />
    <path
       id="path4413"
       d="m 77.142888,902.15762 c 0.19501,0.01 0.39213,0.0167 0.59103,0.0186 -0.1989,-0.002 -0.39602,-0.009 -0.59103,-0.0186 z"
       style="fill:#be202e"
       inkscape:connector-curvature="0" />
    <path
       id="path4415"
       d="m 77.142888,902.15762 c 0.19501,0.01 0.39213,0.0167 0.59103,0.0186 -0.1989,-0.002 -0.39602,-0.009 -0.59103,-0.0186 z"
       style="opacity:0.35;fill:#be202e"
       inkscape:connector-curvature="0" />
    <path
       id="path4418"
       d="m 77.142888,902.15762 c 0.19501,0.01 0.39213,0.0167 0.59103,0.0186 -0.1989,-0.002 -0.39602,-0.009 -0.59103,-0.0186 z"
       style="fill:url(#linearGradient4465)"
       inkscape:connector-curvature="0" />
    <path
       id="path4420"
       d="m 75.021398,897.48609 c -0.0628,5.6e-4 -0.12404,-0.004 -0.18458,-0.004 0.0605,-2.6e-4 0.12133,0.002 0.18458,0.004 z"
       style="fill:#be202e"
       inkscape:connector-curvature="0" />
    <path
       id="path4422"
       d="m 75.021398,897.48609 c -0.0628,5.6e-4 -0.12404,-0.004 -0.18458,-0.004 0.0605,-2.6e-4 0.12133,0.002 0.18458,0.004 z"
       style="opacity:0.35;fill:#be202e"
       inkscape:connector-curvature="0" />
    <path
       id="path4425"
       d="m 75.021398,897.48609 c -0.0628,5.6e-4 -0.12404,-0.004 -0.18458,-0.004 0.0605,-2.6e-4 0.12133,0.002 0.18458,0.004 z"
       style="fill:url(#linearGradient4467)"
       inkscape:connector-curvature="0" />
    <path
       id="path4427"
       d="m 75.014478,897.48516 c 0,0 -0.002,3.9e-4 -0.002,-0.002 0,0 0.002,-3.8e-4 0.002,0.002 z"
       style="fill:#be202e"
       inkscape:connector-curvature="0" />
    <path
       id="path4430"
       d="m 75.014478,897.48516 c 0,0 -0.002,3.9e-4 -0.002,-0.002 0,0 0.002,-3.8e-4 0.002,0.002 z"
       style="opacity:0.35;fill:#be202e"
       inkscape:connector-curvature="0" />
    <path
       id="path4432"
       d="m 75.014478,897.48516 c 0,0 -0.002,3.9e-4 -0.002,-0.002 0,0 0.002,-3.8e-4 0.002,0.002 z"
       style="fill:url(#linearGradient4469)"
       inkscape:connector-curvature="0" />
    <path
       id="path4435"
       d="m 99.783208,922.54582 c 0.665852,1.303 1.337142,2.62964 2.014592,3.98686 0.01,0.0205 0.0193,0.0388 0.0292,0.0593 0.0965,0.19151 0.19057,0.38332 0.28706,0.57483 0.45533,0.91492 0.85585,1.73975 1.76979,3.61522 -1.04208,0.64073 -1.76472,2.07755 -2.41745,3.68745 -0.1054,-1.56897 0.35911,-3.11417 1.44223,-4.39967 -5.416372,0.92274 -10.280462,0.12945 -13.201892,-3.55103 -0.26131,-0.3285 -0.50559,-0.67609 -0.73404,-1.05227 1.27605,1.26111 2.71698,1.68528 5.27318,1.21976 0.005,10e-4 0.0125,0.004 0.0176,0.005 -0.005,-10e-4 -0.0125,-0.004 -0.0176,-0.005 -3.99955,-1.22546 -6.1033,-2.61622 -8.11844,-5.10584 -0.47791,-0.58988 -0.95132,-1.24093 -1.44373,-1.96708 3.73684,2.99035 7.69743,3.48191 11.6501,2.24446 l 0.17635,-0.0512 2.89724,0.006 c 0.12715,0.24343 0.25195,0.48716 0.37702,0.73326 z"
       style="fill:url(#linearGradient4471)"
       inkscape:connector-curvature="0" />
    <text
       transform="matrix(0,-1,1,0,0,0)"
       sodipodi:linespacing="125%"
       id="text4449"
       y="226.38358"
       x="-1016.7677"
       style="font-style:normal;font-weight:normal;font-size:22.34930611px;line-height:125%;font-family:sans-serif;letter-spacing:0px;word-spacing:0px;display:inline;fill:#832778;fill-opacity:1;stroke:none;stroke-width:1px;stroke-linecap:butt;stroke-linejoin:miter;stroke-opacity:1"
       xml:space="preserve"><tspan
         style="font-style:normal;font-variant:normal;font-weight:500;font-stretch:normal;font-size:36.31762314px;font-family:Ubuntu;-inkscape-font-specification:'Ubuntu Medium';fill:#832778;fill-opacity:1"
         y="226.38358"
         x="-1016.7677"
         id="tspan4451"
         sodipodi:role="line">OPEN</tspan></text>
    <path
       inkscape:connector-curvature="0"
       id="path4478"
       style="font-style:normal;font-variant:normal;font-weight:900;font-stretch:normal;font-size:137.16560364px;line-height:125%;font-family:Lato;-inkscape-font-specification:'Lato Heavy';letter-spacing:-9.02266884px;word-spacing:0px;fill:#be2043;fill-opacity:1;stroke:none;stroke-width:1px;stroke-linecap:butt;stroke-linejoin:miter;stroke-opacity:1"
       d="m 247.05128,920.66746 q 1.42399,0 2.3949,0.12923 0.9709,0.12925 1.74762,0.51693 0.77673,0.32308 1.48871,0.96921 0.71199,0.64616 1.61817,1.7446 l 44.7909,56.5378 q -0.25891,-2.71381 -0.38836,-5.23379 -0.12945,-2.58459 -0.12945,-4.8461 l 0,-49.81788 19.28857,0 0,94.14354 -11.39191,0 q -2.52434,0 -4.27197,-0.7755 -1.6829,-0.8399 -3.36579,-2.843 l -44.46726,-56.08542 q 0.19419,2.45533 0.32363,4.84608 0.12946,2.32613 0.12946,4.39379 l 0,50.46405 -19.28857,0 0,-94.14354 11.52135,0 0,0 z" />
    <path
       inkscape:connector-curvature="0"
       id="path4480"
       style="font-style:normal;font-variant:normal;font-weight:900;font-stretch:normal;font-size:137.16560364px;line-height:125%;font-family:Lato;-inkscape-font-specification:'Lato Heavy';letter-spacing:-9.02266884px;word-spacing:0px;fill:#e56b28;fill-opacity:1;stroke:none;stroke-width:1px;stroke-linecap:butt;stroke-linejoin:miter;stroke-opacity:1"
       d="m 345.96509,997.36501 34.95244,0 0,17.44599 -56.83008,0 0,-94.14354 21.87764,0 0,76.69755 z" />
    <path
       inkscape:connector-curvature="0"
       id="path4482"
       style="font-style:normal;font-variant:normal;font-weight:900;font-stretch:normal;font-size:137.16560364px;line-height:125%;font-family:Lato;-inkscape-font-specification:'Lato Heavy';letter-spacing:-9.02266884px;word-spacing:0px;fill:#f59523;fill-opacity:1;stroke:none;stroke-width:1px;stroke-linecap:butt;stroke-linejoin:miter;stroke-opacity:1"
       d="m 409.02029,983.34366 0,31.46734 -21.87763,0 0,-94.14354 33.26954,0 q 9.96792,0 17.08786,2.39076 7.18466,2.32612 11.78027,6.46146 4.66032,4.13532 6.86101,9.75682 2.20072,5.62146 2.20072,12.14753 0,7.04299 -2.26544,12.92292 -2.26542,5.87995 -6.92574,10.0799 -4.66035,4.19994 -11.84502,6.59068 -7.11992,2.32613 -16.89366,2.32613 l -11.39191,0 z m 0,-16.47673 11.39191,0 q 8.54394,0 12.29808,-4.07072 3.75414,-4.07073 3.75414,-11.37218 0,-3.23074 -0.9709,-5.87992 -0.97089,-2.64921 -2.97743,-4.52303 -1.9418,-1.93843 -4.98396,-2.97227 -2.97742,-1.03384 -7.11993,-1.03384 l -11.39191,0 0,29.85196 z" />
    <text
       xml:space="preserve"
       style="font-style:normal;font-weight:normal;font-size:28.97987175px;line-height:125%;font-family:sans-serif;letter-spacing:0px;word-spacing:0px;fill:#832778;fill-opacity:1;stroke:none;stroke-width:1px;stroke-linecap:butt;stroke-linejoin:miter;stroke-opacity:1"
       x="460.22839"
       y="928.19855"
       id="text4236"
       sodipodi:linespacing="125%"><tspan
         sodipodi:role="line"
         id="tspan4238"
         x="460.22839"
         y="928.19855"
         style="font-style:normal;font-variant:normal;font-weight:500;font-stretch:normal;font-size:10.86745071px;font-family:Ubuntu;-inkscape-font-specification:'Ubuntu Medium';fill:#832778;fill-opacity:1">TM</tspan></text>
  </g>
  <g
     inkscape:groupmode="layer"
     id="layer2"
     inkscape:label="Layer 2">
    <text
       xml:space="preserve"
       style="font-style:normal;font-weight:normal;font-size:49.27358246px;line-height:125%;font-family:sans-serif;letter-spacing:0px;word-spacing:0px;fill:#333333;fill-opacity:1;stroke:none;stroke-width:1px;stroke-linecap:butt;stroke-linejoin:miter;stroke-opacity:1"
       x="106.40537"
       y="89.181541"
       id="text4248"
       sodipodi:linespacing="125%"
       transform="scale(0.98675586,1.0134219)"><tspan
         sodipodi:role="line"
         id="tspan4250"
         x="106.40537"
         y="89.181541"
         style="font-style:normal;font-variant:normal;font-weight:500;font-stretch:normal;font-size:67.90997314px;font-family:Ubuntu;-inkscape-font-specification:'Ubuntu Medium';fill:#333333">Powered by</tspan></text>
  </g>
</svg>
